<svg id="svg" version="1.1" xmlns="http://www.w3.org/2000/svg" xmlns:xlink="http://www.w3.org/1999/xlink" width="400" height="415.84158415841586" viewBox="0, 0, 400,415.84158415841586"><g id="svgg"><path id="path0" d="M102.954 20.874 C 102.780 21.156,102.567 23.550,102.481 26.194 C 102.288 32.166,102.453 32.000,96.697 32.000 C 90.591 32.000,90.801 31.796,90.794 37.714 C 90.786 44.114,91.108 43.774,84.915 43.924 C 80.756 44.025,79.707 44.170,79.300 44.700 C 78.558 45.669,78.567 223.928,79.309 224.943 C 80.030 225.929,317.517 226.008,320.200 225.023 C 321.181 224.662,323.304 224.428,325.686 224.418 C 330.483 224.396,330.400 224.507,330.400 218.111 C 330.400 214.159,330.533 213.108,331.200 211.800 C 332.349 209.547,332.433 191.540,331.300 190.290 C 330.124 188.992,330.014 177.518,331.163 175.964 C 332.361 174.344,332.366 168.520,331.172 165.735 C 330.009 163.022,330.141 152.669,331.350 151.786 C 332.391 151.026,332.169 142.092,331.079 140.887 C 329.978 139.670,330.078 129.216,331.200 128.200 C 332.336 127.172,332.419 118.194,331.300 117.377 C 330.139 116.530,330.043 106.098,331.172 103.465 C 332.366 100.680,332.361 94.856,331.163 93.236 C 330.021 91.691,330.127 80.468,331.300 78.811 C 332.347 77.331,332.286 71.529,331.200 69.400 C 330.018 67.082,330.018 57.718,331.200 55.400 C 332.343 53.158,332.328 47.630,331.171 44.933 C 329.815 41.774,330.154 33.315,331.700 31.703 C 333.320 30.014,333.383 23.145,331.793 21.430 L 330.786 20.344 324.493 20.603 C 316.568 20.929,117.547 20.928,109.336 20.602 C 104.624 20.414,103.201 20.475,102.954 20.874 M113.911 22.223 C 114.732 22.798,114.800 23.161,114.800 26.974 C 114.800 29.952,114.950 31.227,115.340 31.550 C 115.735 31.878,143.173 32.026,217.440 32.099 L 319.000 32.200 319.101 127.513 C 319.193 214.735,319.147 222.909,318.555 223.813 C 317.529 225.379,310.049 225.325,308.581 223.742 L 307.600 222.683 307.600 134.115 C 307.600 73.828,307.468 45.300,307.186 44.774 C 306.778 44.012,305.146 44.000,199.394 44.000 L 92.015 44.000 91.791 43.100 C 91.668 42.605,91.619 40.310,91.683 38.000 L 91.800 33.800 96.400 33.594 C 103.267 33.287,103.600 32.958,103.600 26.493 C 103.600 24.095,103.720 22.013,103.867 21.867 C 104.455 21.278,112.994 21.580,113.911 22.223 M330.386 22.374 C 331.098 23.704,330.911 30.415,330.138 31.269 C 329.466 32.011,321.872 32.386,320.233 31.757 C 319.082 31.316,319.321 22.657,320.500 22.088 C 322.222 21.258,329.907 21.480,330.386 22.374 M88.900 45.621 L 90.400 46.038 90.400 134.493 L 90.400 222.948 89.530 223.874 C 88.726 224.730,88.337 224.800,84.383 224.800 L 80.105 224.800 79.857 223.300 C 79.537 221.366,79.532 47.293,79.852 46.100 C 80.127 45.074,85.841 44.772,88.900 45.621 M294.675 55.514 C 295.741 56.192,295.795 60.813,295.601 135.132 C 295.406 210.033,295.377 212.482,294.653 213.011 C 294.029 213.467,278.343 213.576,198.653 213.679 L 103.400 213.802 102.300 212.695 L 101.200 211.587 101.200 134.624 L 101.200 57.661 102.236 56.431 L 103.271 55.200 198.736 55.206 C 251.241 55.209,294.414 55.348,294.675 55.514 M198.800 104.075 C 148.863 104.364,140.197 104.539,139.312 105.273 C 138.457 105.982,138.571 174.914,139.429 175.771 C 140.259 176.602,257.891 176.749,258.720 175.920 C 259.545 175.095,259.400 105.057,258.571 104.229 C 258.053 103.710,257.021 103.617,252.671 103.697 C 249.772 103.750,225.530 103.920,198.800 104.075 M257.776 105.191 L 258.804 105.582 258.702 140.491 L 258.600 175.400 204.400 175.400 L 150.200 175.400 150.098 140.844 C 149.989 104.235,149.930 105.389,151.929 105.084 C 154.362 104.711,256.788 104.815,257.776 105.191 M357.200 208.550 L 357.200 214.300 355.950 214.550 C 355.263 214.688,352.653 214.800,350.150 214.800 L 345.600 214.800 345.600 219.967 C 345.600 226.999,346.181 226.400,339.357 226.400 L 333.600 226.400 333.600 237.347 L 333.600 248.295 343.361 248.587 C 356.008 248.965,354.800 249.576,354.800 242.797 C 354.800 236.155,354.310 236.657,361.040 236.400 C 367.877 236.139,367.600 236.401,367.600 230.200 C 367.600 224.215,367.306 224.506,373.533 224.335 C 379.906 224.161,379.719 224.374,379.519 217.517 C 379.386 212.933,379.285 212.342,378.486 211.491 C 377.697 210.652,377.600 210.123,377.600 206.674 L 377.600 202.800 367.400 202.800 L 357.200 202.800 357.200 208.550 M66.481 250.079 C 66.114 250.446,66.000 258.915,66.000 285.866 C 66.000 320.362,65.982 321.181,65.226 321.586 C 64.801 321.814,62.495 322.000,60.103 322.000 C 54.325 322.000,54.482 321.845,54.325 327.736 C 54.161 333.960,54.119 334.000,47.836 334.000 C 42.226 334.000,42.400 333.827,42.400 339.391 C 42.400 345.664,42.462 345.600,36.351 345.600 C 29.688 345.600,30.000 345.299,30.000 351.734 C 30.000 358.347,30.332 358.000,24.000 358.000 C 20.613 358.000,18.803 358.157,18.480 358.480 C 17.724 359.236,17.805 380.780,18.568 381.824 C 19.416 382.983,281.763 383.260,282.641 382.102 C 283.023 381.599,283.178 379.860,283.187 375.976 C 283.204 368.826,282.947 369.129,289.244 368.833 L 294.200 368.600 294.400 363.740 C 294.673 357.113,294.584 357.200,301.023 357.200 L 305.922 357.200 306.361 355.940 C 306.602 355.247,306.800 352.918,306.800 350.763 C 306.800 345.004,307.153 344.666,313.464 344.400 L 318.200 344.200 318.316 339.600 C 318.487 332.830,318.837 333.304,313.501 333.079 C 311.025 332.975,308.010 332.671,306.800 332.403 C 304.189 331.824,296.589 332.051,295.913 332.727 C 295.631 333.009,295.389 335.371,295.281 338.892 C 295.064 345.969,295.370 345.600,289.725 345.600 C 283.378 345.600,283.600 345.397,283.600 351.188 C 283.600 353.806,283.424 356.410,283.210 356.974 L 282.820 358.000 277.659 358.000 C 271.365 358.000,271.704 357.661,271.534 364.115 C 271.371 370.320,271.735 369.986,265.129 369.994 C 258.537 370.002,258.800 370.266,258.800 363.633 C 258.800 356.985,258.583 357.200,265.285 357.200 C 271.210 357.200,270.785 357.663,270.796 351.200 C 270.802 347.725,270.940 346.776,271.596 345.700 L 272.388 344.400 277.114 344.400 C 280.256 344.400,282.001 344.239,282.320 343.920 C 282.836 343.404,282.982 337.355,282.543 334.700 L 282.295 333.200 278.248 333.195 C 275.955 333.193,273.246 332.935,272.000 332.600 C 269.250 331.862,260.783 331.777,260.080 332.480 C 259.757 332.803,259.600 334.618,259.600 338.020 C 259.600 340.803,259.402 343.647,259.161 344.340 L 258.722 345.600 253.641 345.600 C 247.293 345.600,247.600 345.300,247.600 351.506 C 247.600 358.329,247.911 358.000,241.466 358.000 C 234.869 358.000,235.200 357.692,235.200 363.831 C 235.200 370.049,235.471 369.800,228.703 369.800 C 221.978 369.800,221.999 369.820,222.003 363.456 L 222.005 359.000 223.327 358.100 C 224.484 357.312,225.157 357.200,228.714 357.200 L 232.779 357.200 233.390 356.020 C 233.812 355.202,234.000 353.659,234.000 350.998 C 234.000 347.409,234.072 347.067,235.100 345.779 L 236.200 344.400 240.000 344.396 C 242.090 344.393,244.475 344.280,245.300 344.143 L 246.800 343.895 246.800 338.962 C 246.800 332.997,247.004 333.200,241.000 333.200 C 238.619 333.200,236.378 333.002,235.908 332.751 C 234.856 332.188,225.187 331.821,224.471 332.317 C 223.626 332.902,223.220 335.467,223.210 340.286 C 223.198 345.761,223.384 345.600,217.075 345.600 C 211.434 345.600,211.700 345.296,211.534 351.916 C 211.373 358.321,211.704 357.986,205.526 357.994 C 198.546 358.003,198.800 357.795,198.800 363.501 C 198.800 369.995,198.796 370.000,193.427 370.000 C 185.998 370.000,185.600 369.648,185.600 363.083 C 185.600 357.771,185.971 357.450,192.330 357.263 C 197.884 357.100,197.586 357.406,197.594 351.862 C 197.603 345.186,198.346 344.400,204.645 344.400 C 210.090 344.400,210.000 344.488,210.000 339.160 C 210.000 333.144,210.043 333.200,205.411 333.200 C 203.342 333.200,200.423 332.915,198.925 332.567 C 197.122 332.148,194.885 331.979,192.313 332.067 C 187.010 332.249,187.073 332.170,186.869 338.900 C 186.656 345.952,186.932 345.600,181.612 345.600 C 174.984 345.600,175.307 345.294,175.140 351.742 C 174.970 358.290,175.520 357.758,168.668 358.000 L 163.000 358.200 162.800 363.439 C 162.538 370.282,162.807 370.000,156.551 370.000 C 149.929 370.000,150.000 370.069,150.000 363.675 C 150.000 357.194,149.994 357.200,156.425 357.200 C 162.184 357.200,162.000 357.407,162.000 350.936 C 162.000 347.674,162.155 346.461,162.686 345.562 L 163.372 344.400 168.206 344.400 C 171.432 344.400,173.200 344.240,173.520 343.920 C 174.035 343.405,174.198 336.690,173.750 334.450 L 173.500 333.200 169.223 333.200 C 166.449 333.200,164.181 332.973,162.773 332.554 C 160.525 331.886,151.979 331.889,151.308 332.558 C 151.139 332.727,150.910 335.505,150.800 338.732 C 150.548 346.120,150.982 345.599,145.076 345.606 C 138.648 345.614,139.041 345.209,138.800 352.084 L 138.600 357.800 132.800 358.000 L 127.000 358.200 126.800 363.715 C 126.559 370.357,126.927 369.986,120.576 369.994 C 114.048 370.002,114.236 370.175,114.066 363.995 C 113.884 357.394,113.952 357.318,120.178 357.133 C 126.114 356.957,126.000 357.068,126.000 351.511 C 126.000 348.315,126.174 346.754,126.640 345.772 L 127.280 344.423 132.540 344.311 L 137.800 344.200 137.800 338.800 L 137.800 333.400 132.600 333.160 C 129.740 333.029,126.581 332.707,125.579 332.445 C 124.575 332.182,121.981 332.021,119.790 332.085 C 114.799 332.230,114.814 332.208,114.806 339.126 C 114.798 345.912,115.087 345.600,108.809 345.600 C 102.208 345.600,102.400 345.395,102.400 352.446 C 102.400 358.453,102.888 358.000,96.416 358.000 C 90.651 358.000,90.919 357.723,90.741 363.880 C 90.564 370.023,90.822 369.766,84.640 369.931 C 77.763 370.115,77.454 369.853,77.266 363.682 L 77.132 359.293 78.504 358.246 C 79.772 357.279,80.178 357.200,83.876 357.200 C 89.139 357.200,89.200 357.136,89.200 351.626 C 89.200 347.637,89.237 347.469,90.434 345.958 L 91.667 344.400 95.660 344.400 C 101.277 344.400,101.200 344.469,101.200 339.405 C 101.200 333.262,101.152 333.200,96.362 333.200 C 94.211 333.200,91.945 332.998,91.326 332.750 C 90.707 332.503,87.946 332.210,85.190 332.100 C 78.771 331.844,79.064 331.532,78.800 338.894 C 78.550 345.865,78.806 345.600,72.324 345.600 C 65.935 345.600,66.000 345.533,66.000 352.120 C 66.000 358.256,66.244 358.000,60.396 358.000 C 54.275 358.000,54.496 357.784,54.331 363.933 C 54.165 370.117,54.280 370.000,48.383 370.000 C 41.297 370.000,41.214 369.920,41.205 363.094 L 41.200 358.788 42.500 357.996 C 43.583 357.335,44.519 357.203,48.110 357.201 C 53.308 357.200,53.200 357.333,53.200 350.943 C 53.200 344.915,53.732 344.400,59.955 344.400 C 65.310 344.400,65.200 344.517,65.200 338.806 C 65.200 334.708,65.605 333.157,66.974 332.022 C 67.468 331.611,67.600 330.631,67.600 327.351 C 67.600 325.068,67.645 323.169,67.700 323.132 C 68.582 322.534,100.498 322.310,204.900 322.168 C 273.705 322.074,330.039 321.953,330.086 321.899 C 330.134 321.844,330.311 308.210,330.481 291.600 C 330.650 274.990,330.837 258.790,330.895 255.600 L 331.000 249.800 198.981 249.699 C 96.629 249.621,66.853 249.707,66.481 250.079 M330.000 255.600 L 330.000 261.200 204.974 261.200 C 119.555 261.200,79.702 261.331,79.174 261.614 C 78.420 262.018,78.400 262.765,78.400 290.950 L 78.400 319.872 77.381 320.336 C 75.738 321.085,68.143 320.950,67.843 320.167 C 67.510 319.300,67.534 250.600,67.867 250.267 C 68.013 250.120,127.053 250.000,199.067 250.000 L 330.000 250.000 330.000 255.600 M318.426 273.614 C 319.128 273.990,319.200 274.494,319.200 279.051 C 319.200 283.468,319.296 284.196,320.000 285.091 C 320.705 285.988,320.800 286.714,320.800 291.234 L 320.800 296.359 319.462 297.380 L 318.124 298.400 307.562 298.406 C 294.130 298.413,295.062 298.004,294.800 304.011 L 294.600 308.600 289.897 308.713 C 283.485 308.866,283.600 308.954,283.600 303.917 C 283.600 297.734,287.251 298.400,253.369 298.400 L 224.461 298.400 223.231 297.364 L 222.000 296.329 222.001 291.264 C 222.003 286.909,222.115 286.017,222.801 284.890 C 223.482 283.775,223.600 282.874,223.600 278.810 C 223.600 274.689,223.695 273.984,224.300 273.632 C 225.280 273.061,317.360 273.044,318.426 273.614 M126.410 286.226 C 127.112 288.072,126.905 296.215,126.140 296.851 C 125.209 297.625,116.832 297.853,115.087 297.152 C 114.379 296.867,111.460 296.537,108.600 296.417 L 103.400 296.200 103.286 292.100 C 103.127 286.365,103.093 286.405,108.114 286.377 C 110.477 286.364,112.790 286.131,113.600 285.825 C 114.486 285.490,117.021 285.278,120.510 285.248 L 126.020 285.200 126.410 286.226 M65.200 327.381 C 65.200 333.547,65.158 333.600,60.326 333.600 C 55.570 333.600,55.600 333.637,55.600 327.641 C 55.600 322.859,55.211 323.200,60.667 323.200 L 65.200 323.200 65.200 327.381 M89.381 334.864 C 91.077 335.637,90.948 343.044,89.216 344.325 C 87.399 345.669,80.214 345.650,79.852 344.300 C 79.537 343.123,79.529 335.849,79.843 335.033 C 80.143 334.250,87.738 334.115,89.381 334.864 M125.920 334.880 C 126.502 335.462,126.577 343.500,126.009 344.400 C 125.714 344.869,124.533 345.029,120.615 345.133 L 115.600 345.265 115.600 339.833 L 115.600 334.400 120.520 334.400 C 123.813 334.400,125.599 334.559,125.920 334.880 M161.920 334.880 C 162.549 335.509,162.562 342.807,161.936 344.181 C 161.340 345.488,153.695 345.772,152.331 344.538 C 151.110 343.432,151.248 335.492,152.500 334.888 C 153.768 334.277,161.310 334.270,161.920 334.880 M197.626 334.814 C 198.312 335.181,198.400 335.683,198.400 339.228 C 198.400 345.040,198.255 345.200,192.997 345.200 C 188.122 345.200,188.400 345.526,188.400 339.800 C 188.400 334.086,188.141 334.400,192.869 334.400 C 195.060 334.400,197.201 334.586,197.626 334.814 M234.540 335.149 C 235.065 335.585,235.200 336.443,235.200 339.327 C 235.200 344.676,234.622 345.200,228.725 345.200 L 224.400 345.200 224.400 340.067 C 224.400 337.243,224.534 334.799,224.699 334.635 C 225.234 334.099,233.817 334.548,234.540 335.149 M270.720 334.880 C 271.393 335.553,271.372 343.611,270.696 344.537 C 270.257 345.137,269.545 345.212,265.196 345.113 L 260.200 345.000 260.087 340.223 C 260.024 337.596,260.064 335.211,260.174 334.923 C 260.447 334.213,270.014 334.174,270.720 334.880 M306.900 334.957 C 308.050 335.830,307.919 343.009,306.730 344.274 C 305.503 345.581,297.498 345.703,296.814 344.426 C 296.056 343.010,296.286 335.306,297.100 334.832 C 298.166 334.211,306.050 334.312,306.900 334.957 M53.100 335.052 C 53.959 335.282,53.999 335.476,53.987 339.347 C 53.968 345.078,53.784 345.266,48.324 345.114 L 44.200 345.000 44.086 340.424 C 44.024 337.908,44.063 335.613,44.174 335.324 C 44.386 334.771,51.269 334.561,53.100 335.052 M41.914 351.080 C 41.995 354.001,41.859 355.563,41.434 356.580 L 40.841 358.000 36.846 358.000 C 30.595 358.000,30.800 358.195,30.800 352.243 C 30.800 346.362,30.273 346.829,36.800 346.926 L 41.800 347.000 41.914 351.080 M78.312 351.433 C 78.467 357.523,78.040 358.000,72.425 358.000 C 67.469 358.000,67.600 358.158,67.600 352.187 C 67.600 346.293,67.114 346.754,73.178 346.889 L 78.200 347.000 78.312 351.433 M114.715 350.701 C 114.934 357.757,114.398 358.247,106.800 357.927 L 103.800 357.800 103.689 352.289 L 103.577 346.777 109.089 346.889 L 114.600 347.000 114.715 350.701 M150.313 351.441 C 150.481 358.073,150.536 358.000,145.410 358.000 C 139.659 358.000,139.600 357.937,139.600 351.829 C 139.600 346.437,139.086 346.856,145.600 346.940 L 150.200 347.000 150.313 351.441 M186.167 347.043 C 187.101 347.401,187.034 354.442,186.078 356.400 L 185.394 357.800 181.293 357.914 C 177.200 358.028,177.190 358.026,176.795 356.988 C 176.355 355.831,176.247 347.486,176.667 347.067 C 177.000 346.733,185.306 346.712,186.167 347.043 M222.567 347.043 C 223.882 347.547,223.451 355.411,222.031 356.831 C 220.612 358.249,213.145 358.676,212.643 357.367 C 212.312 356.506,212.333 347.400,212.667 347.067 C 213.000 346.733,221.706 346.712,222.567 347.043 M259.000 351.881 C 259.000 358.012,259.241 357.762,253.180 357.942 L 248.400 358.084 248.400 352.431 L 248.400 346.777 253.700 346.888 L 259.000 347.000 259.000 351.881 M295.114 351.080 C 295.195 354.001,295.059 355.563,294.634 356.580 L 294.041 358.000 290.109 358.000 C 284.415 358.000,284.400 357.984,284.400 352.011 C 284.400 346.406,283.918 346.828,290.200 346.926 L 295.000 347.000 295.114 351.080 M29.670 363.798 C 29.879 370.075,29.484 369.719,36.720 370.149 C 55.654 371.274,55.528 371.315,55.688 364.048 L 55.800 359.000 60.000 358.883 C 66.423 358.705,66.000 358.347,66.000 363.959 C 66.000 367.870,66.115 368.798,66.657 369.247 C 67.980 370.345,89.861 371.099,90.881 370.082 C 91.231 369.732,91.465 367.845,91.600 364.282 L 91.800 359.000 96.200 358.884 C 102.833 358.708,102.400 358.367,102.400 363.763 C 102.400 370.030,102.285 369.919,109.000 370.179 C 111.860 370.289,116.810 370.485,120.000 370.614 C 127.660 370.922,127.237 371.281,127.505 364.259 L 127.714 358.778 133.157 358.889 L 138.600 359.000 138.713 363.993 C 138.851 370.099,138.419 369.697,145.305 370.115 C 164.468 371.277,163.200 371.668,163.200 364.604 L 163.200 359.236 164.500 358.998 C 165.215 358.867,167.780 358.814,170.200 358.880 L 174.600 359.000 174.800 363.881 C 175.051 370.009,174.755 369.726,181.320 370.104 C 201.359 371.255,200.091 371.652,200.393 364.137 L 200.600 359.000 205.800 359.000 L 211.000 359.000 211.200 363.881 C 211.450 369.972,211.209 369.728,217.318 370.087 C 237.035 371.247,235.731 371.645,236.000 364.389 L 236.200 359.000 241.659 358.889 L 247.117 358.778 247.259 363.728 C 247.443 370.167,247.185 369.903,253.531 370.169 C 274.482 371.048,272.400 371.706,272.400 364.208 C 272.400 358.297,271.923 358.707,278.600 358.884 L 283.000 359.000 282.931 363.800 C 282.892 366.440,282.739 371.525,282.589 375.100 L 282.316 381.600 151.808 381.600 C 80.029 381.600,20.738 381.488,20.050 381.350 L 18.800 381.100 18.800 370.183 C 18.800 361.824,18.917 359.219,19.300 359.065 C 19.575 358.954,21.983 358.849,24.652 358.832 L 29.503 358.800 29.670 363.798 " stroke="none" fill="#a1a1a1" fill-rule="evenodd"></path><path id="path1" d="M103.867 21.867 C 103.720 22.013,103.600 24.095,103.600 26.493 C 103.600 32.958,103.267 33.287,96.400 33.594 L 91.800 33.800 91.683 38.000 C 91.619 40.310,91.668 42.605,91.791 43.100 L 92.015 44.000 199.394 44.000 C 305.146 44.000,306.778 44.012,307.186 44.774 C 307.468 45.300,307.600 73.828,307.600 134.115 L 307.600 222.683 308.581 223.742 C 310.049 225.325,317.529 225.379,318.555 223.813 C 319.147 222.909,319.193 214.735,319.101 127.513 L 319.000 32.200 217.440 32.099 C 143.173 32.026,115.735 31.878,115.340 31.550 C 114.950 31.227,114.800 29.952,114.800 26.974 C 114.800 21.636,114.758 21.600,108.578 21.600 C 106.133 21.600,104.013 21.720,103.867 21.867 M320.500 22.088 C 319.321 22.657,319.082 31.316,320.233 31.757 C 321.872 32.386,329.466 32.011,330.138 31.269 C 330.911 30.415,331.098 23.704,330.386 22.374 C 329.907 21.480,322.222 21.258,320.500 22.088 M79.852 46.100 C 79.532 47.293,79.537 221.366,79.857 223.300 L 80.105 224.800 84.383 224.800 C 88.337 224.800,88.726 224.730,89.530 223.874 L 90.400 222.948 90.400 134.493 L 90.400 46.038 88.900 45.621 C 85.841 44.772,80.127 45.074,79.852 46.100 M151.929 105.084 C 149.930 105.389,149.989 104.235,150.098 140.844 L 150.200 175.400 204.400 175.400 L 258.600 175.400 258.702 140.491 L 258.804 105.582 257.776 105.191 C 256.788 104.815,154.362 104.711,151.929 105.084 M67.867 250.267 C 67.534 250.600,67.510 319.300,67.843 320.167 C 68.143 320.950,75.738 321.085,77.381 320.336 L 78.400 319.872 78.400 290.950 C 78.400 262.765,78.420 262.018,79.174 261.614 C 79.702 261.331,119.555 261.200,204.974 261.200 L 330.000 261.200 330.000 255.600 L 330.000 250.000 199.067 250.000 C 127.053 250.000,68.013 250.120,67.867 250.267 M55.867 323.467 C 55.451 323.882,55.553 331.425,55.990 332.574 C 56.372 333.580,56.459 333.600,60.326 333.600 C 65.158 333.600,65.200 333.547,65.200 327.381 L 65.200 323.200 60.667 323.200 C 58.173 323.200,56.013 323.320,55.867 323.467 M79.843 335.033 C 79.529 335.849,79.537 343.123,79.852 344.300 C 80.214 345.650,87.399 345.669,89.216 344.325 C 90.948 343.044,91.077 335.637,89.381 334.864 C 87.738 334.115,80.143 334.250,79.843 335.033 M115.600 339.833 L 115.600 345.265 120.615 345.133 C 126.642 344.973,126.386 345.220,126.394 339.580 C 126.402 334.214,126.612 334.400,120.520 334.400 L 115.600 334.400 115.600 339.833 M152.500 334.888 C 151.248 335.492,151.110 343.432,152.331 344.538 C 153.695 345.772,161.340 345.488,161.936 344.181 C 162.562 342.807,162.549 335.509,161.920 334.880 C 161.310 334.270,153.768 334.277,152.500 334.888 M188.643 335.033 C 188.509 335.381,188.400 337.526,188.400 339.800 C 188.400 345.526,188.122 345.200,192.997 345.200 C 198.255 345.200,198.400 345.040,198.400 339.228 C 198.400 334.356,198.451 334.400,192.869 334.400 C 189.606 334.400,188.842 334.514,188.643 335.033 M224.699 334.635 C 224.534 334.799,224.400 337.243,224.400 340.067 L 224.400 345.200 228.725 345.200 C 234.622 345.200,235.200 344.676,235.200 339.327 C 235.200 336.443,235.065 335.585,234.540 335.149 C 233.817 334.548,225.234 334.099,224.699 334.635 M260.174 334.923 C 260.064 335.211,260.024 337.596,260.087 340.223 L 260.200 345.000 265.196 345.113 C 269.545 345.212,270.257 345.137,270.696 344.537 C 271.372 343.611,271.393 335.553,270.720 334.880 C 270.014 334.174,260.447 334.213,260.174 334.923 M297.100 334.832 C 296.286 335.306,296.056 343.010,296.814 344.426 C 297.498 345.703,305.503 345.581,306.730 344.274 C 307.919 343.009,308.050 335.830,306.900 334.957 C 306.050 334.312,298.166 334.211,297.100 334.832 M44.174 335.324 C 44.063 335.613,44.024 337.908,44.086 340.424 L 44.200 345.000 48.324 345.114 C 53.784 345.266,53.968 345.078,53.987 339.347 C 54.002 334.557,54.325 334.814,48.287 334.805 C 45.425 334.801,44.321 334.941,44.174 335.324 M31.300 347.059 C 30.938 347.209,30.800 348.639,30.800 352.243 C 30.800 358.195,30.595 358.000,36.846 358.000 L 40.841 358.000 41.434 356.580 C 41.859 355.563,41.995 354.001,41.914 351.080 L 41.800 347.000 36.800 346.926 C 34.050 346.885,31.575 346.945,31.300 347.059 M67.878 347.055 C 67.376 347.557,67.558 356.998,68.080 357.520 C 68.387 357.827,69.952 358.000,72.425 358.000 C 78.040 358.000,78.467 357.523,78.312 351.433 L 78.200 347.000 73.178 346.889 C 70.416 346.827,68.031 346.902,67.878 347.055 M103.689 352.289 L 103.800 357.800 106.800 357.927 C 114.398 358.247,114.934 357.757,114.715 350.701 L 114.600 347.000 109.089 346.889 L 103.577 346.777 103.689 352.289 M140.300 347.070 C 139.685 347.236,139.600 347.815,139.600 351.829 C 139.600 357.937,139.659 358.000,145.410 358.000 C 150.536 358.000,150.481 358.073,150.313 351.441 L 150.200 347.000 145.600 346.940 C 143.070 346.908,140.685 346.966,140.300 347.070 M176.667 347.067 C 176.247 347.486,176.355 355.831,176.795 356.988 C 177.190 358.026,177.200 358.028,181.293 357.914 L 185.394 357.800 186.078 356.400 C 187.034 354.442,187.101 347.401,186.167 347.043 C 185.306 346.712,177.000 346.733,176.667 347.067 M212.667 347.067 C 212.333 347.400,212.312 356.506,212.643 357.367 C 213.145 358.676,220.612 358.249,222.031 356.831 C 223.451 355.411,223.882 347.547,222.567 347.043 C 221.706 346.712,213.000 346.733,212.667 347.067 M248.400 352.431 L 248.400 358.084 253.180 357.942 C 259.241 357.762,259.000 358.012,259.000 351.881 L 259.000 347.000 253.700 346.888 L 248.400 346.777 248.400 352.431 M284.900 347.059 C 284.540 347.209,284.400 348.593,284.400 352.011 C 284.400 357.984,284.415 358.000,290.109 358.000 L 294.041 358.000 294.634 356.580 C 295.059 355.563,295.195 354.001,295.114 351.080 L 295.000 347.000 290.200 346.926 C 287.560 346.885,285.175 346.945,284.900 347.059 M19.300 359.065 C 18.917 359.219,18.800 361.824,18.800 370.183 L 18.800 381.100 20.050 381.350 C 20.738 381.488,80.029 381.600,151.808 381.600 L 282.316 381.600 282.589 375.100 C 282.739 371.525,282.892 366.440,282.931 363.800 L 283.000 359.000 278.600 358.884 C 271.923 358.707,272.400 358.297,272.400 364.208 C 272.400 371.706,274.482 371.048,253.531 370.169 C 247.185 369.903,247.443 370.167,247.259 363.728 L 247.117 358.778 241.659 358.889 L 236.200 359.000 236.000 364.389 C 235.731 371.645,237.035 371.247,217.318 370.087 C 211.209 369.728,211.450 369.972,211.200 363.881 L 211.000 359.000 205.800 359.000 L 200.600 359.000 200.393 364.137 C 200.091 371.652,201.359 371.255,181.320 370.104 C 174.755 369.726,175.051 370.009,174.800 363.881 L 174.600 359.000 170.200 358.880 C 167.780 358.814,165.215 358.867,164.500 358.998 L 163.200 359.236 163.200 364.604 C 163.200 371.668,164.468 371.277,145.305 370.115 C 138.419 369.697,138.851 370.099,138.713 363.993 L 138.600 359.000 133.157 358.889 L 127.714 358.778 127.505 364.259 C 127.237 371.281,127.660 370.922,120.000 370.614 C 116.810 370.485,111.860 370.289,109.000 370.179 C 102.285 369.919,102.400 370.030,102.400 363.763 C 102.400 358.367,102.833 358.708,96.200 358.884 L 91.800 359.000 91.600 364.282 C 91.465 367.845,91.231 369.732,90.881 370.082 C 89.861 371.099,67.980 370.345,66.657 369.247 C 66.115 368.798,66.000 367.870,66.000 363.959 C 66.000 358.347,66.423 358.705,60.000 358.883 L 55.800 359.000 55.688 364.048 C 55.528 371.315,55.654 371.274,36.720 370.149 C 29.484 369.719,29.879 370.075,29.670 363.798 L 29.503 358.800 24.652 358.832 C 21.983 358.849,19.575 358.954,19.300 359.065 " stroke="none" fill="#eaefef" fill-rule="evenodd"></path><path id="path2" d="M102.890 12.900 L 103.000 19.000 108.600 19.269 C 111.680 19.416,162.800 19.556,222.200 19.580 C 320.877 19.619,343.118 19.784,343.819 20.486 C 343.954 20.621,344.095 23.222,344.132 26.265 L 344.200 31.800 350.000 32.039 C 353.190 32.171,355.845 32.306,355.900 32.339 C 355.955 32.373,356.000 34.718,356.000 37.551 C 356.000 44.038,356.305 43.738,349.440 44.000 L 344.200 44.200 344.085 49.400 C 343.916 56.992,343.472 56.400,349.332 56.400 C 355.964 56.400,356.000 56.432,356.000 62.387 C 356.000 68.362,356.033 68.335,348.600 68.501 L 344.200 68.600 344.200 74.200 L 344.200 79.800 349.259 80.000 C 356.192 80.274,356.104 80.186,355.931 86.671 C 355.766 92.842,356.072 92.550,349.481 92.800 L 344.200 93.000 344.200 98.600 L 344.200 104.200 349.439 104.400 C 356.359 104.665,356.098 104.414,355.931 110.643 C 355.771 116.612,356.264 116.159,349.668 116.400 L 344.200 116.600 344.090 122.451 C 343.959 129.368,343.378 128.786,350.420 128.795 C 356.233 128.801,356.000 128.559,356.000 134.600 C 356.000 140.668,356.270 140.400,350.153 140.400 C 343.445 140.400,344.000 139.841,344.000 146.600 C 344.000 153.345,343.477 152.798,349.933 152.806 C 356.072 152.814,355.772 152.527,355.932 158.553 C 356.095 164.711,356.313 164.508,349.200 164.797 L 344.200 165.000 344.200 170.600 L 344.200 176.200 349.481 176.400 C 356.072 176.650,355.766 176.358,355.931 182.529 C 356.104 189.014,356.192 188.926,349.260 189.200 L 344.200 189.400 344.093 200.351 C 343.966 213.460,343.503 212.400,349.360 212.400 C 355.594 212.400,355.600 212.395,355.600 206.831 C 355.600 203.041,355.704 202.376,356.442 201.437 L 357.284 200.367 368.222 200.419 C 374.238 200.448,379.349 200.355,379.580 200.212 C 380.201 199.829,380.130 191.127,379.500 190.284 C 379.088 189.733,378.123 189.597,374.011 189.508 C 369.139 189.403,369.010 189.377,368.517 188.400 C 368.115 187.605,368.010 171.768,368.002 111.200 C 367.997 69.290,367.880 34.055,367.741 32.900 L 367.489 30.800 362.544 30.800 L 357.600 30.800 357.527 26.100 C 357.487 23.515,357.486 20.915,357.525 20.323 C 357.565 19.730,357.418 19.134,357.198 18.999 C 356.979 18.864,356.800 19.033,356.800 19.376 C 356.800 19.719,356.609 20.000,356.376 20.000 C 356.143 20.000,356.045 20.150,356.159 20.333 C 356.272 20.517,356.131 20.667,355.845 20.667 C 355.537 20.667,355.367 20.285,355.427 19.733 C 355.530 18.800,355.529 18.800,350.565 18.800 L 345.600 18.800 345.600 12.800 L 345.600 6.800 224.190 6.800 L 102.779 6.800 102.890 12.900 M91.406 21.700 C 91.262 23.295,91.201 26.040,91.272 27.800 L 91.400 31.000 96.200 31.000 L 101.000 31.000 101.115 26.847 C 101.198 23.835,101.052 22.159,100.582 20.747 L 99.936 18.800 95.802 18.800 L 91.668 18.800 91.406 21.700 M79.661 33.100 C 79.383 34.365,79.211 37.110,79.278 39.200 L 79.400 43.000 83.400 43.117 C 89.533 43.296,89.200 43.555,89.200 38.598 C 89.200 36.295,88.983 33.599,88.717 32.606 L 88.234 30.800 84.200 30.800 L 80.165 30.800 79.661 33.100 M333.325 32.308 C 331.632 33.408,331.359 42.288,332.986 43.354 C 334.018 44.030,340.119 44.276,342.761 43.748 L 344.021 43.496 343.911 37.848 L 343.800 32.200 338.800 32.100 C 336.050 32.044,333.586 32.138,333.325 32.308 M68.000 43.414 C 68.000 43.972,67.730 44.841,67.399 45.345 C 66.868 46.156,66.810 58.004,66.899 147.431 L 67.000 248.600 199.000 248.600 L 331.000 248.600 331.107 237.600 C 331.204 227.613,331.151 226.554,330.530 226.100 C 329.677 225.475,322.629 225.422,320.893 226.028 L 319.666 226.455 319.533 231.168 C 319.442 234.407,319.228 236.086,318.851 236.540 C 318.012 237.549,79.997 237.560,79.160 236.552 C 78.080 235.251,77.914 224.060,77.659 135.600 C 77.455 64.878,77.294 45.614,76.900 44.926 C 76.625 44.446,76.400 43.681,76.400 43.226 C 76.400 42.444,76.178 42.400,72.200 42.400 L 68.000 42.400 68.000 43.414 M332.838 57.442 C 331.603 59.013,331.597 65.779,332.829 67.346 C 333.691 68.442,339.106 68.879,342.761 68.148 L 344.021 67.896 343.911 62.248 L 343.800 56.600 338.738 56.488 L 333.676 56.377 332.838 57.442 M103.214 57.974 C 102.636 59.054,102.636 210.146,103.214 211.226 C 103.769 212.263,113.556 212.417,114.397 211.403 C 114.788 210.933,114.878 195.878,114.824 140.418 C 114.775 89.111,114.877 69.803,115.204 69.193 L 115.652 68.356 204.904 68.425 C 291.708 68.492,294.165 68.473,294.450 67.747 C 294.808 66.836,294.896 58.715,294.557 57.833 C 294.137 56.738,103.800 56.878,103.214 57.974 M332.631 81.278 C 331.881 82.347,331.736 89.254,332.425 91.066 C 333.041 92.686,333.369 92.788,338.000 92.788 C 344.558 92.789,344.041 93.344,343.910 86.451 L 343.800 80.600 338.531 80.489 C 333.457 80.381,333.238 80.411,332.631 81.278 M260.267 104.667 C 260.120 104.813,260.000 120.916,260.000 140.451 L 260.000 175.969 259.125 176.784 C 258.253 177.597,258.033 177.600,205.298 177.600 C 169.563 177.600,152.096 177.735,151.574 178.014 C 150.714 178.474,150.395 187.139,151.192 188.400 C 151.525 188.928,158.676 189.013,210.885 189.109 L 270.200 189.217 270.900 188.364 C 272.012 187.010,271.981 106.069,270.869 105.062 C 270.116 104.381,260.896 104.038,260.267 104.667 M332.631 105.328 C 331.991 105.796,331.926 106.382,332.055 110.468 C 332.251 116.638,331.987 116.400,338.649 116.400 L 344.000 116.400 344.000 110.600 L 344.000 104.800 338.676 104.800 C 334.899 104.800,333.143 104.953,332.631 105.328 M332.700 129.232 C 332.093 129.586,332.000 130.298,332.000 134.606 C 332.000 140.677,331.676 140.400,338.774 140.400 L 344.000 140.400 344.000 134.600 L 344.000 128.800 338.700 128.812 C 335.785 128.819,333.085 129.008,332.700 129.232 M332.580 154.187 C 332.213 155.064,332.000 156.955,332.000 159.325 C 332.000 164.439,331.948 164.400,338.731 164.400 L 344.000 164.400 344.000 158.600 L 344.000 152.800 338.580 152.800 L 333.159 152.800 332.580 154.187 M333.325 176.714 C 332.408 177.297,332.000 179.288,332.000 183.182 C 332.000 188.873,331.985 188.861,338.600 188.715 L 343.800 188.600 343.911 182.831 C 343.995 178.483,343.897 176.981,343.511 176.737 C 342.866 176.327,333.965 176.308,333.325 176.714 M380.667 201.867 C 380.520 202.013,380.400 207.197,380.400 213.387 C 380.400 226.795,380.990 225.600,374.369 225.600 C 367.973 225.600,368.230 225.340,368.486 231.549 C 368.735 237.611,368.324 237.200,374.144 237.200 C 380.311 237.200,380.000 236.868,380.000 243.456 C 380.000 249.805,380.489 249.334,373.700 249.535 L 368.400 249.693 368.400 255.446 L 368.400 261.200 373.567 261.200 C 380.584 261.200,380.000 260.656,380.000 267.200 C 380.000 273.744,380.584 273.200,373.567 273.200 L 368.400 273.200 368.400 279.200 L 368.400 285.200 373.426 285.200 C 380.299 285.200,380.000 284.937,380.000 290.981 C 380.000 297.756,380.541 297.200,373.947 297.200 L 368.379 297.200 368.489 303.100 L 368.600 309.000 374.095 309.111 C 380.619 309.243,380.084 308.593,379.915 316.200 L 379.800 321.400 374.200 321.600 L 368.600 321.800 368.400 327.281 C 368.156 333.964,368.581 333.552,361.792 333.688 L 356.200 333.800 356.102 338.400 C 355.947 345.618,355.964 345.600,349.404 345.600 C 344.031 345.600,344.000 345.564,344.000 339.373 C 344.000 333.483,343.868 333.600,350.489 333.600 C 356.460 333.600,356.000 334.119,356.000 327.381 C 356.000 321.367,356.248 321.600,349.849 321.600 C 343.987 321.600,344.000 321.614,344.000 315.537 C 344.000 308.978,343.804 309.200,349.616 309.200 C 356.276 309.200,356.000 309.450,356.000 303.419 C 356.000 296.663,356.497 297.200,350.237 297.200 C 343.692 297.200,344.000 297.478,344.000 291.564 C 344.000 285.110,343.870 285.237,350.600 285.103 L 355.800 285.000 355.800 279.200 L 355.800 273.400 350.400 273.200 C 343.517 272.945,344.000 273.398,344.000 267.200 C 344.000 261.002,343.517 261.455,350.400 261.200 L 355.800 261.000 355.912 255.695 L 356.023 250.389 354.986 249.995 C 352.564 249.074,333.278 249.507,332.750 250.494 C 332.393 251.161,332.204 261.526,332.007 291.303 C 331.695 338.545,332.451 333.338,325.876 333.513 C 320.141 333.667,319.858 333.982,320.069 340.000 C 320.260 345.470,319.992 345.200,325.242 345.200 C 331.494 345.200,331.736 345.461,331.541 352.003 C 331.362 358.022,331.655 357.751,325.082 358.000 L 319.800 358.200 319.600 363.481 C 319.350 370.094,319.694 369.750,313.082 370.000 L 307.800 370.200 307.693 375.600 C 307.559 382.323,307.888 382.000,301.173 382.000 C 294.935 382.000,295.255 382.329,295.113 375.774 L 295.000 370.600 290.400 370.484 C 283.503 370.310,284.112 369.713,283.846 376.899 C 283.365 389.880,283.123 393.166,282.619 393.584 C 282.277 393.868,240.497 394.031,150.160 394.099 L 18.200 394.200 18.076 395.071 C 18.008 395.550,17.693 396.157,17.376 396.420 C 16.939 396.782,16.800 397.949,16.800 401.242 L 16.800 405.587 161.519 405.597 C 277.188 405.604,306.368 405.505,306.887 405.103 C 307.404 404.702,307.563 403.644,307.672 399.861 C 307.851 393.632,307.884 393.600,314.195 393.600 C 319.701 393.600,319.479 393.829,319.659 387.960 C 319.846 381.875,319.730 382.000,325.230 382.000 C 331.735 382.000,331.554 382.172,331.689 375.852 C 331.828 369.320,331.451 369.614,339.700 369.606 L 345.600 369.600 345.600 365.584 C 345.600 362.097,345.486 361.414,344.737 360.401 C 343.314 358.475,344.116 358.000,348.790 358.000 C 350.931 358.000,353.789 357.884,355.141 357.743 L 357.600 357.486 357.600 352.343 L 357.600 347.200 362.546 347.200 L 367.491 347.200 367.746 345.344 C 367.886 344.323,368.000 341.438,368.000 338.932 C 368.000 335.247,368.115 334.331,368.601 334.144 C 369.526 333.789,371.200 334.345,371.200 335.008 C 371.200 335.763,378.974 335.890,379.436 335.141 C 379.592 334.889,379.828 331.874,379.960 328.441 L 380.200 322.200 381.281 322.075 C 382.030 321.989,382.521 322.204,382.877 322.775 C 383.339 323.515,383.787 323.600,387.216 323.600 L 391.040 323.600 391.520 321.276 C 392.155 318.199,392.219 203.557,391.586 202.374 C 391.166 201.589,381.398 201.136,380.667 201.867 M332.827 213.772 C 331.880 214.779,331.638 223.772,332.533 224.667 C 333.304 225.437,342.426 225.052,343.032 224.224 C 344.005 222.893,343.834 213.753,342.826 213.214 C 341.110 212.296,333.832 212.702,332.827 213.772 M356.846 238.145 C 356.525 238.531,356.411 240.348,356.488 243.856 L 356.600 249.000 362.311 249.111 L 368.022 249.222 367.911 243.511 L 367.800 237.800 362.558 237.689 C 358.420 237.601,357.217 237.697,356.846 238.145 M54.800 284.157 C 54.800 316.394,54.862 319.938,55.433 320.157 C 56.944 320.737,64.707 320.419,64.957 319.767 C 65.275 318.940,65.275 249.860,64.957 249.033 C 64.754 248.503,63.909 248.400,59.757 248.400 L 54.800 248.400 54.800 284.157 M356.175 261.720 C 356.065 262.006,356.026 264.661,356.088 267.620 L 356.200 273.000 362.100 273.111 L 368.000 273.221 368.000 267.211 L 368.000 261.200 362.187 261.200 C 357.786 261.200,356.326 261.326,356.175 261.720 M224.349 285.861 C 223.526 286.853,223.313 295.664,224.097 296.314 C 224.958 297.029,317.335 297.118,318.195 296.404 C 318.907 295.813,319.072 287.968,318.410 286.226 L 318.020 285.200 271.459 285.200 C 228.641 285.200,224.854 285.253,224.349 285.861 M356.689 285.478 C 356.044 285.646,355.989 286.182,356.089 291.331 L 356.200 297.000 362.100 297.111 L 368.000 297.221 368.000 291.463 L 368.000 285.705 366.500 285.457 C 364.814 285.178,357.783 285.193,356.689 285.478 M356.090 315.300 L 356.200 321.400 362.100 321.511 L 368.000 321.621 368.000 315.411 L 368.000 309.200 361.990 309.200 L 355.979 309.200 356.090 315.300 M40.558 326.200 C 40.558 329.280,40.621 330.487,40.697 328.882 C 40.773 327.278,40.773 324.758,40.696 323.282 C 40.619 321.807,40.557 323.120,40.558 326.200 M43.462 323.131 C 42.942 323.706,42.800 324.692,42.800 327.717 C 42.800 332.492,42.772 332.470,48.699 332.314 L 53.000 332.200 53.117 328.200 C 53.297 322.051,53.578 322.400,48.454 322.400 C 44.767 322.400,44.026 322.509,43.462 323.131 M67.446 334.586 C 66.418 336.155,66.517 343.420,67.574 343.986 C 68.729 344.604,76.045 344.492,76.900 343.843 C 77.868 343.109,77.928 335.846,76.977 334.489 C 75.976 333.060,68.395 333.137,67.446 334.586 M103.423 334.489 C 102.638 335.609,102.524 343.164,103.280 343.920 C 103.795 344.435,110.510 344.598,112.750 344.150 L 114.000 343.900 114.000 339.140 C 114.000 333.442,114.171 333.600,107.997 333.600 C 104.367 333.600,103.995 333.672,103.423 334.489 M140.400 333.892 C 139.344 334.293,139.212 334.911,139.206 339.482 L 139.200 343.964 140.500 344.203 C 141.215 344.334,143.600 344.387,145.800 344.321 L 149.800 344.200 149.916 339.800 C 150.091 333.190,150.394 333.594,145.292 333.632 C 142.932 333.649,140.730 333.766,140.400 333.892 M176.223 334.489 C 175.212 335.932,175.332 343.428,176.374 343.986 C 177.476 344.576,184.918 344.522,185.520 343.920 C 186.109 343.331,186.179 336.122,185.610 334.626 C 185.042 333.133,177.252 333.020,176.223 334.489 M212.414 334.374 C 211.698 335.712,211.880 343.868,212.633 344.157 C 213.688 344.562,220.399 344.429,221.226 343.986 C 222.361 343.379,222.396 335.282,221.269 334.262 C 220.107 333.211,212.988 333.301,212.414 334.374 M248.187 334.090 C 248.069 334.396,248.024 336.796,248.087 339.423 L 248.200 344.200 252.440 344.313 C 258.868 344.484,258.801 344.537,258.794 339.310 C 258.791 336.939,258.617 334.730,258.409 334.400 C 257.869 333.543,248.506 333.259,248.187 334.090 M285.200 333.871 C 283.879 334.358,283.600 335.336,283.600 339.486 C 283.600 344.510,283.565 344.483,289.960 344.313 L 294.200 344.200 294.200 339.000 L 294.200 333.800 290.000 333.725 C 287.690 333.684,285.530 333.749,285.200 333.871 M29.900 334.681 L 28.800 334.853 28.800 339.219 L 28.800 343.585 29.900 343.892 C 30.505 344.062,33.250 344.200,36.000 344.200 L 41.000 344.200 41.000 339.400 L 41.000 334.600 36.000 334.554 C 33.250 334.529,30.505 334.586,29.900 334.681 M18.700 346.288 L 16.800 346.444 16.800 350.768 L 16.800 355.091 18.322 356.146 C 19.744 357.131,20.135 357.200,24.314 357.200 C 29.630 357.200,29.289 357.655,29.116 350.800 L 29.000 346.200 24.800 346.166 C 22.490 346.147,19.745 346.202,18.700 346.288 M55.689 346.623 C 54.540 347.428,54.338 354.762,55.423 356.311 C 56.452 357.780,64.242 357.667,64.810 356.174 C 65.329 354.810,65.311 347.754,64.786 346.774 C 64.230 345.734,57.126 345.616,55.689 346.623 M91.680 346.480 C 91.362 346.798,91.200 348.524,91.200 351.600 C 91.200 357.354,91.062 357.200,96.216 357.200 C 101.174 357.200,101.200 357.167,101.200 350.995 C 101.200 347.285,101.115 346.783,100.426 346.414 C 99.327 345.826,92.281 345.879,91.680 346.480 M127.227 346.950 C 126.603 348.116,126.778 356.138,127.443 356.803 C 127.708 357.068,129.723 357.184,132.833 357.113 L 137.800 357.000 137.800 351.600 L 137.800 346.200 132.774 346.089 C 127.808 345.979,127.741 345.989,127.227 346.950 M164.101 346.282 C 162.789 346.535,162.128 355.462,163.332 356.668 C 164.258 357.595,173.481 357.297,173.740 356.331 C 174.201 354.610,174.031 346.991,173.520 346.480 C 173.056 346.016,166.227 345.872,164.101 346.282 M200.100 346.670 C 198.957 347.467,198.755 353.980,199.810 356.020 L 200.421 357.200 204.796 357.200 C 208.713 357.200,209.215 357.119,209.586 356.426 C 210.178 355.319,210.124 347.084,209.520 346.480 C 208.766 345.726,201.236 345.877,200.100 346.670 M236.014 346.774 C 235.786 347.199,235.600 349.371,235.600 351.600 C 235.600 357.282,235.527 357.200,240.588 357.200 C 247.023 357.200,246.800 357.406,246.800 351.460 L 246.800 346.500 245.550 346.250 C 242.461 345.632,236.448 345.962,236.014 346.774 M273.200 346.357 C 272.213 346.631,272.198 346.698,272.086 351.413 C 271.945 357.375,271.771 357.200,277.826 357.200 L 282.300 357.200 282.550 355.950 C 282.870 354.348,282.876 347.463,282.557 346.633 C 282.298 345.957,275.375 345.754,273.200 346.357 M309.062 346.731 C 307.997 347.909,308.090 357.006,309.174 357.586 C 310.692 358.398,318.713 358.110,319.186 357.226 C 319.889 355.913,319.716 347.373,318.971 346.629 C 317.981 345.639,309.976 345.722,309.062 346.731 M6.583 358.900 C 6.477 359.175,6.438 367.050,6.496 376.400 L 6.600 393.400 12.200 393.400 L 17.800 393.400 17.705 387.800 C 17.653 384.720,17.508 376.845,17.383 370.300 L 17.156 358.400 11.966 358.400 C 8.182 358.400,6.723 358.536,6.583 358.900 M43.500 358.825 C 42.380 359.489,42.479 366.685,43.629 368.146 C 44.425 369.159,44.615 369.200,48.439 369.200 C 53.286 369.200,53.282 369.205,53.113 362.840 L 53.000 358.600 48.600 358.505 C 46.097 358.451,43.898 358.589,43.500 358.825 M79.700 358.659 C 79.043 358.932,79.014 366.754,79.664 368.181 C 80.117 369.176,80.225 369.200,84.197 369.200 C 89.290 369.200,89.276 369.218,89.115 362.999 L 89.000 358.600 84.600 358.525 C 82.180 358.484,79.975 358.544,79.700 358.659 M115.478 358.655 C 115.138 358.995,115.117 367.048,115.452 368.300 C 115.682 369.159,115.879 369.200,119.747 369.194 C 125.853 369.185,125.800 369.236,125.800 363.388 L 125.800 358.600 120.778 358.489 C 118.016 358.427,115.631 358.502,115.478 358.655 M151.700 358.659 C 151.342 358.808,151.200 360.148,151.200 363.384 C 151.200 369.087,151.068 368.957,157.031 369.134 L 161.541 369.267 161.794 367.534 C 161.933 366.580,161.992 364.180,161.924 362.200 L 161.800 358.600 157.000 358.526 C 154.360 358.485,151.975 358.545,151.700 358.659 M188.092 358.868 C 187.312 359.648,187.433 366.973,188.246 368.214 C 188.864 369.157,189.073 369.200,193.038 369.200 C 197.970 369.200,197.691 369.587,197.516 363.000 L 197.400 358.600 192.992 358.488 C 189.905 358.409,188.437 358.523,188.092 358.868 M224.080 358.880 C 223.348 359.612,223.447 366.544,224.210 368.020 L 224.821 369.200 228.764 369.200 C 233.821 369.200,234.000 368.998,234.000 363.294 C 234.000 358.318,234.087 358.400,228.800 358.400 C 226.036 358.400,224.393 358.567,224.080 358.880 M259.847 359.021 C 259.452 360.050,259.562 367.047,259.990 368.174 C 260.380 369.200,260.382 369.200,265.372 369.200 L 270.364 369.200 270.603 367.900 C 270.734 367.185,270.787 364.800,270.721 362.600 L 270.600 358.600 265.347 358.489 C 260.821 358.393,260.060 358.467,259.847 359.021 M296.278 358.893 C 295.659 359.346,295.588 360.015,295.687 364.404 L 295.800 369.400 301.711 369.511 L 307.623 369.622 307.511 364.111 L 307.400 358.600 302.191 358.489 C 298.424 358.409,296.788 358.521,296.278 358.893 " stroke="none" fill="#060707" fill-rule="evenodd"></path><path id="path3" d="M102.484 12.945 L 102.400 19.291 101.200 19.115 C 100.540 19.018,100.000 18.965,100.000 18.998 C 100.000 19.031,100.277 19.869,100.615 20.862 C 101.051 22.143,101.196 23.874,101.115 26.833 L 101.000 31.000 96.200 31.000 L 91.400 31.000 91.426 24.800 C 91.456 17.530,90.845 18.711,90.525 26.540 L 90.331 31.280 89.328 31.088 C 88.413 30.913,88.350 30.989,88.610 31.948 C 88.767 32.527,88.978 35.198,89.080 37.884 C 89.298 43.662,89.691 43.301,83.400 43.117 L 79.400 43.000 79.272 39.200 C 79.202 37.102,79.365 34.458,79.637 33.298 C 80.093 31.347,79.961 30.306,79.335 30.931 C 79.190 31.077,78.965 33.762,78.835 36.898 L 78.600 42.600 77.500 42.727 C 76.291 42.866,76.107 43.540,76.900 44.926 C 77.294 45.614,77.455 64.878,77.659 135.600 C 77.914 224.060,78.080 235.251,79.160 236.552 C 79.997 237.560,318.012 237.549,318.851 236.540 C 319.228 236.086,319.442 234.407,319.533 231.168 L 319.666 226.455 320.893 226.028 C 322.629 225.422,329.677 225.475,330.530 226.100 C 331.151 226.554,331.204 227.613,331.107 237.600 L 331.000 248.600 199.000 248.600 L 67.000 248.600 66.899 147.431 C 66.810 58.004,66.868 46.156,67.399 45.345 C 68.187 44.142,68.188 42.400,67.400 42.400 C 67.070 42.400,66.779 42.715,66.754 43.100 C 66.728 43.485,66.683 44.070,66.654 44.400 C 66.618 44.795,66.225 44.974,65.502 44.925 L 64.403 44.850 64.598 146.725 C 64.705 202.756,64.889 264.350,65.007 283.600 C 65.126 302.850,65.124 319.005,65.003 319.500 C 64.783 320.406,57.402 320.913,55.433 320.157 C 54.862 319.938,54.800 316.394,54.800 284.157 L 54.800 248.400 53.843 248.400 C 52.370 248.400,52.403 247.490,52.504 285.622 L 52.600 321.600 48.600 321.614 C 45.889 321.624,44.278 321.813,43.600 322.200 C 43.050 322.514,42.195 322.778,41.700 322.786 C 40.831 322.800,40.379 327.694,40.784 332.700 C 40.856 333.580,40.767 333.600,36.684 333.600 C 32.284 333.600,28.800 333.937,28.800 334.363 C 28.800 334.503,31.545 334.613,34.900 334.609 L 41.000 334.600 41.000 339.400 L 41.000 344.200 36.000 344.200 C 32.973 344.200,30.369 343.994,29.400 343.678 C 28.330 343.329,26.209 343.201,23.000 343.292 L 18.200 343.428 23.500 343.514 L 28.800 343.600 28.800 344.600 L 28.800 345.600 22.800 345.600 C 19.385 345.600,16.800 345.760,16.800 345.971 C 16.800 346.185,19.372 346.311,22.900 346.271 L 29.000 346.200 29.116 350.800 C 29.289 357.660,29.637 357.200,24.270 357.200 C 20.083 357.200,19.657 357.128,18.400 356.200 C 16.730 354.968,16.711 354.968,17.274 356.202 C 17.948 357.682,17.635 357.782,11.668 358.000 L 6.200 358.200 6.200 376.000 L 6.200 393.800 11.374 393.913 C 17.038 394.036,17.775 394.287,17.166 395.891 C 16.830 396.774,16.858 396.850,17.363 396.431 C 17.687 396.162,18.008 395.550,18.076 395.071 L 18.200 394.200 150.160 394.099 C 240.497 394.031,282.277 393.868,282.619 393.584 C 283.123 393.166,283.365 389.880,283.846 376.899 C 284.112 369.713,283.503 370.310,290.400 370.484 L 295.000 370.600 295.113 375.774 C 295.255 382.329,294.935 382.000,301.173 382.000 C 307.888 382.000,307.559 382.323,307.693 375.600 L 307.800 370.200 313.082 370.000 C 319.694 369.750,319.350 370.094,319.600 363.481 L 319.800 358.200 325.082 358.000 C 331.655 357.751,331.362 358.022,331.541 352.003 C 331.736 345.461,331.494 345.200,325.242 345.200 C 319.992 345.200,320.260 345.470,320.069 340.000 C 319.858 333.982,320.141 333.667,325.876 333.513 C 332.451 333.338,331.695 338.545,332.007 291.303 C 332.204 261.526,332.393 251.161,332.750 250.494 C 333.278 249.507,352.564 249.074,354.986 249.995 L 356.023 250.389 355.912 255.695 L 355.800 261.000 350.400 261.200 C 343.517 261.455,344.000 261.002,344.000 267.200 C 344.000 273.398,343.517 272.945,350.400 273.200 L 355.800 273.400 355.800 279.200 L 355.800 285.000 350.600 285.103 C 343.870 285.237,344.000 285.110,344.000 291.564 C 344.000 297.478,343.692 297.200,350.237 297.200 C 356.497 297.200,356.000 296.663,356.000 303.419 C 356.000 309.450,356.276 309.200,349.616 309.200 C 343.804 309.200,344.000 308.978,344.000 315.537 C 344.000 321.614,343.987 321.600,349.849 321.600 C 356.248 321.600,356.000 321.367,356.000 327.381 C 356.000 334.124,356.470 333.600,350.419 333.600 C 343.867 333.600,344.000 333.479,344.000 339.442 C 344.000 345.554,344.040 345.600,349.404 345.600 C 355.964 345.600,355.947 345.618,356.102 338.400 L 356.200 333.800 361.792 333.688 C 368.581 333.552,368.156 333.964,368.400 327.281 L 368.600 321.800 374.200 321.600 L 379.800 321.400 379.915 316.200 C 380.084 308.593,380.619 309.243,374.095 309.111 L 368.600 309.000 368.489 303.100 L 368.379 297.200 373.947 297.200 C 380.541 297.200,380.000 297.756,380.000 290.981 C 380.000 284.937,380.299 285.200,373.426 285.200 L 368.400 285.200 368.400 279.200 L 368.400 273.200 373.567 273.200 C 380.584 273.200,380.000 273.744,380.000 267.200 C 380.000 260.656,380.584 261.200,373.567 261.200 L 368.400 261.200 368.400 255.446 L 368.400 249.693 373.700 249.535 C 380.489 249.334,380.000 249.805,380.000 243.456 C 380.000 236.868,380.311 237.200,374.144 237.200 C 368.324 237.200,368.735 237.611,368.486 231.549 C 368.230 225.337,367.968 225.600,374.400 225.600 C 380.952 225.600,380.366 226.795,380.494 213.167 L 380.600 201.800 385.796 201.687 C 390.333 201.589,391.056 201.662,391.496 202.264 C 392.202 203.229,392.236 318.115,391.532 321.168 C 391.086 323.096,391.247 324.086,391.900 323.433 C 392.472 322.861,392.462 203.121,391.890 202.000 C 391.395 201.030,391.226 200.994,386.274 200.800 C 380.133 200.559,380.414 200.839,380.406 194.976 C 380.398 189.111,380.583 189.295,374.520 189.132 C 371.203 189.042,369.473 188.833,369.120 188.480 C 368.698 188.058,368.562 173.153,368.400 109.613 C 368.290 66.523,368.110 31.177,368.000 31.067 C 367.507 30.573,368.018 187.328,368.512 188.362 C 369.004 189.388,369.067 189.401,374.005 189.508 C 378.123 189.597,379.088 189.733,379.500 190.284 C 380.130 191.127,380.201 199.829,379.580 200.212 C 379.349 200.355,374.238 200.448,368.222 200.419 L 357.284 200.367 356.442 201.437 C 355.704 202.376,355.600 203.041,355.600 206.831 C 355.600 212.395,355.594 212.400,349.360 212.400 C 343.503 212.400,343.966 213.460,344.093 200.351 L 344.200 189.400 349.260 189.200 C 356.192 188.926,356.104 189.014,355.931 182.529 C 355.766 176.358,356.072 176.650,349.481 176.400 L 344.200 176.200 344.200 170.600 L 344.200 165.000 349.200 164.797 C 356.313 164.508,356.095 164.711,355.932 158.553 C 355.772 152.527,356.072 152.814,349.933 152.806 C 343.477 152.798,344.000 153.345,344.000 146.600 C 344.000 139.841,343.445 140.400,350.153 140.400 C 356.270 140.400,356.000 140.668,356.000 134.600 C 356.000 128.559,356.233 128.801,350.420 128.795 C 343.378 128.786,343.959 129.368,344.090 122.451 L 344.200 116.600 349.668 116.400 C 356.264 116.159,355.771 116.612,355.931 110.643 C 356.098 104.414,356.359 104.665,349.439 104.400 L 344.200 104.200 344.200 98.600 L 344.200 93.000 349.481 92.800 C 356.072 92.550,355.766 92.842,355.931 86.671 C 356.104 80.186,356.192 80.274,349.259 80.000 L 344.200 79.800 344.200 74.200 L 344.200 68.600 348.600 68.501 C 356.033 68.335,356.000 68.362,356.000 62.387 C 356.000 56.432,355.964 56.400,349.332 56.400 C 343.472 56.400,343.916 56.992,344.085 49.400 L 344.200 44.200 349.440 44.000 C 356.305 43.738,356.000 44.038,356.000 37.551 C 356.000 34.718,355.955 32.373,355.900 32.339 C 355.845 32.306,353.190 32.171,350.000 32.039 L 344.200 31.800 344.132 26.265 C 344.095 23.222,343.954 20.621,343.819 20.486 C 343.118 19.784,320.877 19.619,222.200 19.580 C 162.800 19.556,111.680 19.416,108.600 19.269 L 103.000 19.000 102.784 12.800 L 102.568 6.600 102.484 12.945 M355.598 18.800 C 355.303 19.709,355.435 20.667,355.854 20.667 C 356.135 20.667,356.272 20.517,356.159 20.333 C 356.045 20.150,356.143 20.000,356.376 20.000 C 356.609 20.000,356.797 19.685,356.794 19.300 C 356.789 18.752,356.713 18.719,356.442 19.145 C 356.151 19.606,356.063 19.606,355.880 19.145 C 355.761 18.845,355.634 18.690,355.598 18.800 M216.800 20.852 C 272.570 20.858,321.032 20.745,324.493 20.603 L 330.786 20.344 331.793 21.430 C 333.383 23.145,333.320 30.014,331.700 31.703 C 330.154 33.315,329.815 41.774,331.171 44.933 C 332.328 47.630,332.343 53.158,331.200 55.400 C 330.018 57.718,330.018 67.082,331.200 69.400 C 332.286 71.529,332.347 77.331,331.300 78.811 C 330.127 80.468,330.021 91.691,331.163 93.236 C 332.361 94.856,332.366 100.680,331.172 103.465 C 330.043 106.098,330.139 116.530,331.300 117.377 C 332.419 118.194,332.336 127.172,331.200 128.200 C 330.078 129.216,329.978 139.670,331.079 140.887 C 332.169 142.092,332.391 151.026,331.350 151.786 C 330.141 152.669,330.009 163.022,331.172 165.735 C 332.366 168.520,332.361 174.344,331.163 175.964 C 330.014 177.518,330.124 188.992,331.300 190.290 C 332.433 191.540,332.349 209.547,331.200 211.800 C 330.533 213.108,330.400 214.159,330.400 218.111 C 330.400 224.507,330.483 224.396,325.686 224.418 C 323.304 224.428,321.181 224.662,320.200 225.023 C 317.517 226.008,80.030 225.929,79.309 224.943 C 78.567 223.928,78.558 45.669,79.300 44.700 C 79.707 44.170,80.756 44.025,84.915 43.924 C 91.108 43.774,90.786 44.114,90.794 37.714 C 90.801 31.796,90.591 32.000,96.697 32.000 C 102.453 32.000,102.288 32.166,102.481 26.194 C 102.687 19.852,102.119 20.315,109.336 20.602 C 112.671 20.734,161.030 20.847,216.800 20.852 M343.911 37.848 L 344.021 43.496 342.761 43.748 C 340.119 44.276,334.018 44.030,332.986 43.354 C 331.359 42.288,331.632 33.408,333.325 32.308 C 333.586 32.138,336.050 32.044,338.800 32.100 L 343.800 32.200 343.911 37.848 M102.236 56.431 L 101.200 57.661 101.200 134.624 L 101.200 211.587 102.300 212.695 L 103.400 213.802 198.653 213.679 C 278.343 213.576,294.029 213.467,294.653 213.011 C 295.377 212.482,295.406 210.033,295.601 135.132 C 295.795 60.813,295.741 56.192,294.675 55.514 C 294.414 55.348,251.241 55.209,198.736 55.206 L 103.271 55.200 102.236 56.431 M343.911 62.248 L 344.021 67.896 342.761 68.148 C 339.106 68.879,333.691 68.442,332.829 67.346 C 331.597 65.779,331.603 59.013,332.838 57.442 L 333.676 56.377 338.738 56.488 L 343.800 56.600 343.911 62.248 M294.629 58.171 C 294.763 58.705,294.773 61.180,294.651 63.671 C 294.530 66.162,294.448 68.470,294.470 68.800 C 294.787 73.573,294.708 210.624,294.388 211.222 C 293.790 212.340,115.863 212.463,115.434 211.346 C 115.202 210.740,115.130 210.740,114.460 211.346 C 113.288 212.406,103.792 212.305,103.214 211.226 C 102.636 210.146,102.636 59.054,103.214 57.974 C 103.622 57.212,105.118 57.200,199.006 57.200 L 294.385 57.200 294.629 58.171 M343.910 86.451 C 344.041 93.344,344.558 92.789,338.000 92.788 C 332.218 92.788,332.000 92.543,332.000 86.063 C 332.000 80.308,331.952 80.350,338.531 80.489 L 343.800 80.600 343.910 86.451 M194.300 93.901 L 140.800 94.003 140.800 97.870 C 140.800 100.552,140.633 101.931,140.257 102.369 C 139.511 103.236,138.585 105.975,139.269 105.291 C 139.602 104.958,141.290 104.800,144.506 104.800 C 147.117 104.800,149.561 104.635,149.937 104.434 C 151.203 103.756,258.396 103.749,258.825 104.426 C 259.412 105.355,259.310 175.330,258.720 175.920 C 258.351 176.289,245.632 176.400,203.906 176.400 C 150.311 176.400,149.577 176.411,149.986 177.174 C 150.214 177.599,150.438 180.074,150.485 182.674 L 150.570 187.400 150.694 183.000 C 150.794 179.456,150.948 178.503,151.485 178.100 C 152.011 177.706,163.396 177.597,205.176 177.587 C 251.847 177.576,258.296 177.502,259.000 176.970 C 259.920 176.275,260.697 104.648,259.790 104.064 C 258.478 103.218,258.000 101.557,258.000 97.837 L 258.000 94.046 252.900 93.923 C 250.095 93.855,223.725 93.846,194.300 93.901 M344.000 110.600 L 344.000 116.400 338.649 116.400 C 331.987 116.400,332.251 116.638,332.055 110.468 C 331.869 104.584,331.616 104.800,338.676 104.800 L 344.000 104.800 344.000 110.600 M344.000 134.600 L 344.000 140.400 338.774 140.400 C 331.676 140.400,332.000 140.677,332.000 134.606 C 332.000 128.530,331.655 128.828,338.700 128.812 L 344.000 128.800 344.000 134.600 M344.000 158.600 L 344.000 164.400 338.731 164.400 C 331.948 164.400,332.000 164.439,332.000 159.325 C 332.000 156.955,332.213 155.064,332.580 154.187 L 333.159 152.800 338.580 152.800 L 344.000 152.800 344.000 158.600 M343.511 176.737 C 343.897 176.981,343.995 178.483,343.911 182.831 L 343.800 188.600 338.600 188.715 C 331.985 188.861,332.000 188.873,332.000 183.182 C 332.000 179.288,332.408 177.297,333.325 176.714 C 333.965 176.308,342.866 176.327,343.511 176.737 M385.100 199.495 C 386.255 199.576,388.145 199.576,389.300 199.495 C 390.455 199.414,389.510 199.348,387.200 199.348 C 384.890 199.348,383.945 199.414,385.100 199.495 M377.600 206.674 C 377.600 210.123,377.697 210.652,378.486 211.491 C 379.285 212.342,379.386 212.933,379.519 217.517 C 379.719 224.374,379.906 224.161,373.533 224.335 C 367.306 224.506,367.600 224.215,367.600 230.200 C 367.600 236.401,367.877 236.139,361.040 236.400 C 354.310 236.657,354.800 236.155,354.800 242.797 C 354.800 249.576,356.008 248.965,343.361 248.587 L 333.600 248.295 333.600 237.347 L 333.600 226.400 339.357 226.400 C 346.181 226.400,345.600 226.999,345.600 219.967 L 345.600 214.800 350.150 214.800 C 352.653 214.800,355.263 214.688,355.950 214.550 L 357.200 214.300 357.200 208.550 L 357.200 202.800 367.400 202.800 L 377.600 202.800 377.600 206.674 M342.826 213.214 C 343.834 213.753,344.005 222.893,343.032 224.224 C 342.426 225.052,333.304 225.437,332.533 224.667 C 331.638 223.772,331.880 214.779,332.827 213.772 C 333.832 212.702,341.110 212.296,342.826 213.214 M367.911 243.511 L 368.022 249.222 362.311 249.111 L 356.600 249.000 356.488 243.856 C 356.343 237.206,356.004 237.550,362.558 237.689 L 367.800 237.800 367.911 243.511 M330.895 255.600 C 330.837 258.790,330.650 274.990,330.481 291.600 C 330.311 308.210,330.134 321.844,330.086 321.899 C 330.039 321.953,273.705 322.074,204.900 322.168 C 100.498 322.310,68.582 322.534,67.700 323.132 C 67.645 323.169,67.600 325.068,67.600 327.351 C 67.600 330.631,67.468 331.611,66.974 332.022 C 65.605 333.157,65.200 334.708,65.200 338.806 C 65.200 344.517,65.310 344.400,59.955 344.400 C 53.732 344.400,53.200 344.915,53.200 350.943 C 53.200 357.333,53.308 357.200,48.110 357.201 C 44.519 357.203,43.583 357.335,42.500 357.996 L 41.200 358.788 41.205 363.094 C 41.214 369.920,41.297 370.000,48.383 370.000 C 54.280 370.000,54.165 370.117,54.331 363.933 C 54.496 357.784,54.275 358.000,60.396 358.000 C 66.244 358.000,66.000 358.256,66.000 352.120 C 66.000 345.533,65.935 345.600,72.324 345.600 C 78.806 345.600,78.550 345.865,78.800 338.894 C 79.064 331.532,78.771 331.844,85.190 332.100 C 87.946 332.210,90.707 332.503,91.326 332.750 C 91.945 332.998,94.211 333.200,96.362 333.200 C 101.152 333.200,101.200 333.262,101.200 339.405 C 101.200 344.469,101.277 344.400,95.660 344.400 L 91.667 344.400 90.434 345.958 C 89.237 347.469,89.200 347.637,89.200 351.626 C 89.200 357.136,89.139 357.200,83.876 357.200 C 80.178 357.200,79.772 357.279,78.504 358.246 L 77.132 359.293 77.266 363.682 C 77.454 369.853,77.763 370.115,84.640 369.931 C 90.822 369.766,90.564 370.023,90.741 363.880 C 90.919 357.723,90.651 358.000,96.416 358.000 C 102.888 358.000,102.400 358.453,102.400 352.446 C 102.400 345.395,102.208 345.600,108.809 345.600 C 115.087 345.600,114.798 345.912,114.806 339.126 C 114.814 332.208,114.799 332.230,119.790 332.085 C 121.981 332.021,124.575 332.182,125.579 332.445 C 126.581 332.707,129.740 333.029,132.600 333.160 L 137.800 333.400 137.800 338.800 L 137.800 344.200 132.540 344.311 L 127.280 344.423 126.640 345.772 C 126.174 346.754,126.000 348.315,126.000 351.511 C 126.000 357.068,126.114 356.957,120.178 357.133 C 113.952 357.318,113.884 357.394,114.066 363.995 C 114.236 370.175,114.048 370.002,120.576 369.994 C 126.927 369.986,126.559 370.357,126.800 363.715 L 127.000 358.200 132.800 358.000 L 138.600 357.800 138.800 352.084 C 139.041 345.209,138.648 345.614,145.076 345.606 C 150.982 345.599,150.548 346.120,150.800 338.732 C 150.910 335.505,151.139 332.727,151.308 332.558 C 151.979 331.889,160.525 331.886,162.773 332.554 C 164.181 332.973,166.449 333.200,169.223 333.200 L 173.500 333.200 173.750 334.450 C 174.198 336.690,174.035 343.405,173.520 343.920 C 173.200 344.240,171.432 344.400,168.206 344.400 L 163.372 344.400 162.686 345.562 C 162.155 346.461,162.000 347.674,162.000 350.936 C 162.000 357.407,162.184 357.200,156.425 357.200 C 149.994 357.200,150.000 357.194,150.000 363.675 C 150.000 370.069,149.929 370.000,156.551 370.000 C 162.807 370.000,162.538 370.282,162.800 363.439 L 163.000 358.200 168.668 358.000 C 175.520 357.758,174.970 358.290,175.140 351.742 C 175.307 345.294,174.984 345.600,181.612 345.600 C 186.932 345.600,186.656 345.952,186.869 338.900 C 187.073 332.170,187.010 332.249,192.313 332.067 C 194.885 331.979,197.122 332.148,198.925 332.567 C 200.423 332.915,203.342 333.200,205.411 333.200 C 210.043 333.200,210.000 333.144,210.000 339.160 C 210.000 344.488,210.090 344.400,204.645 344.400 C 198.346 344.400,197.603 345.186,197.594 351.862 C 197.586 357.406,197.884 357.100,192.330 357.263 C 185.971 357.450,185.600 357.771,185.600 363.083 C 185.600 369.648,185.998 370.000,193.427 370.000 C 198.796 370.000,198.800 369.995,198.800 363.501 C 198.800 357.795,198.546 358.003,205.526 357.994 C 211.704 357.986,211.373 358.321,211.534 351.916 C 211.700 345.296,211.434 345.600,217.075 345.600 C 223.384 345.600,223.198 345.761,223.210 340.286 C 223.220 335.467,223.626 332.902,224.471 332.317 C 225.187 331.821,234.856 332.188,235.908 332.751 C 236.378 333.002,238.619 333.200,241.000 333.200 C 247.004 333.200,246.800 332.997,246.800 338.962 L 246.800 343.895 245.300 344.143 C 244.475 344.280,242.090 344.393,240.000 344.396 L 236.200 344.400 235.100 345.779 C 234.072 347.067,234.000 347.409,234.000 350.998 C 234.000 353.659,233.812 355.202,233.390 356.020 L 232.779 357.200 228.714 357.200 C 225.157 357.200,224.484 357.312,223.327 358.100 L 222.005 359.000 222.003 363.456 C 221.999 369.820,221.978 369.800,228.703 369.800 C 235.471 369.800,235.200 370.049,235.200 363.831 C 235.200 357.692,234.869 358.000,241.466 358.000 C 247.911 358.000,247.600 358.329,247.600 351.506 C 247.600 345.300,247.293 345.600,253.641 345.600 L 258.722 345.600 259.161 344.340 C 259.402 343.647,259.600 340.803,259.600 338.020 C 259.600 334.618,259.757 332.803,260.080 332.480 C 260.783 331.777,269.250 331.862,272.000 332.600 C 273.246 332.935,275.955 333.193,278.248 333.195 L 282.295 333.200 282.543 334.700 C 282.982 337.355,282.836 343.404,282.320 343.920 C 282.001 344.239,280.256 344.400,277.114 344.400 L 272.388 344.400 271.596 345.700 C 270.940 346.776,270.802 347.725,270.796 351.200 C 270.785 357.663,271.210 357.200,265.285 357.200 C 258.583 357.200,258.800 356.985,258.800 363.633 C 258.800 370.266,258.537 370.002,265.129 369.994 C 271.735 369.986,271.371 370.320,271.534 364.115 C 271.704 357.661,271.365 358.000,277.659 358.000 L 282.820 358.000 283.210 356.974 C 283.424 356.410,283.600 353.806,283.600 351.188 C 283.600 345.397,283.378 345.600,289.725 345.600 C 295.370 345.600,295.064 345.969,295.281 338.892 C 295.389 335.371,295.631 333.009,295.913 332.727 C 296.589 332.051,304.189 331.824,306.800 332.403 C 308.010 332.671,311.025 332.975,313.501 333.079 C 318.837 333.304,318.487 332.830,318.316 339.600 L 318.200 344.200 313.464 344.400 C 307.153 344.666,306.800 345.004,306.800 350.763 C 306.800 352.918,306.602 355.247,306.361 355.940 L 305.922 357.200 301.023 357.200 C 294.584 357.200,294.673 357.113,294.400 363.740 L 294.200 368.600 289.244 368.833 C 282.947 369.129,283.204 368.826,283.187 375.976 C 283.178 379.860,283.023 381.599,282.641 382.102 C 281.763 383.260,19.416 382.983,18.568 381.824 C 17.805 380.780,17.724 359.236,18.480 358.480 C 18.803 358.157,20.613 358.000,24.000 358.000 C 30.332 358.000,30.000 358.347,30.000 351.734 C 30.000 345.299,29.688 345.600,36.351 345.600 C 42.462 345.600,42.400 345.664,42.400 339.391 C 42.400 333.827,42.226 334.000,47.836 334.000 C 54.119 334.000,54.161 333.960,54.325 327.736 C 54.482 321.845,54.325 322.000,60.103 322.000 C 62.495 322.000,64.801 321.814,65.226 321.586 C 65.982 321.181,66.000 320.362,66.000 285.866 C 66.000 258.915,66.114 250.446,66.481 250.079 C 66.853 249.707,96.629 249.621,198.981 249.699 L 331.000 249.800 330.895 255.600 M368.000 267.211 L 368.000 273.221 362.100 273.111 L 356.200 273.000 356.088 267.620 C 355.941 260.558,355.331 261.200,362.187 261.200 L 368.000 261.200 368.000 267.211 M224.300 273.632 C 223.695 273.984,223.600 274.689,223.600 278.810 C 223.600 282.874,223.482 283.775,222.801 284.890 C 222.115 286.017,222.003 286.909,222.001 291.264 L 222.000 296.329 223.231 297.364 L 224.461 298.400 253.369 298.400 C 287.251 298.400,283.600 297.734,283.600 303.917 C 283.600 308.954,283.485 308.866,289.897 308.713 L 294.600 308.600 294.800 304.011 C 295.062 298.004,294.130 298.413,307.562 298.406 L 318.124 298.400 319.462 297.380 L 320.800 296.359 320.800 291.234 C 320.800 286.714,320.705 285.988,320.000 285.091 C 319.296 284.196,319.200 283.468,319.200 279.051 C 319.200 274.494,319.128 273.990,318.426 273.614 C 317.360 273.044,225.280 273.061,224.300 273.632 M113.600 285.825 C 112.790 286.131,110.477 286.364,108.114 286.377 C 103.093 286.405,103.127 286.365,103.286 292.100 L 103.400 296.200 108.600 296.417 C 111.460 296.537,114.379 296.867,115.087 297.152 C 116.832 297.853,125.209 297.625,126.140 296.851 C 126.905 296.215,127.112 288.072,126.410 286.226 L 126.020 285.200 120.510 285.248 C 117.021 285.278,114.486 285.490,113.600 285.825 M318.410 286.226 C 319.072 287.968,318.907 295.813,318.195 296.404 C 317.335 297.118,224.958 297.029,224.097 296.314 C 223.313 295.664,223.526 286.853,224.349 285.861 C 224.854 285.253,228.641 285.200,271.459 285.200 L 318.020 285.200 318.410 286.226 M366.500 285.457 L 368.000 285.705 368.000 291.463 L 368.000 297.221 362.100 297.111 L 356.200 297.000 356.089 291.331 C 355.989 286.182,356.044 285.646,356.689 285.478 C 357.783 285.193,364.814 285.178,366.500 285.457 M124.974 287.190 C 126.483 287.764,126.595 295.747,125.100 296.148 C 123.923 296.463,116.250 296.471,115.433 296.157 C 114.628 295.848,114.494 288.066,115.280 287.280 C 115.870 286.690,123.474 286.620,124.974 287.190 M368.000 315.411 L 368.000 321.621 362.100 321.511 L 356.200 321.400 356.090 315.300 L 355.979 309.200 361.990 309.200 L 368.000 309.200 368.000 315.411 M380.220 322.500 C 380.134 322.775,379.989 325.880,379.897 329.400 C 379.803 333.038,379.862 335.023,380.036 334.000 C 380.203 333.010,380.354 330.197,380.370 327.749 C 380.403 322.809,380.764 321.939,382.327 323.034 C 383.252 323.682,383.530 323.290,382.720 322.480 C 382.090 321.850,380.417 321.863,380.220 322.500 M53.009 323.300 C 53.133 323.795,53.181 326.000,53.117 328.200 L 53.000 332.200 48.699 332.314 C 42.772 332.470,42.800 332.492,42.800 327.717 C 42.800 322.450,42.853 322.400,48.454 322.400 C 52.612 322.400,52.794 322.436,53.009 323.300 M76.977 334.489 C 77.928 335.846,77.868 343.109,76.900 343.843 C 76.045 344.492,68.729 344.604,67.574 343.986 C 66.517 343.420,66.418 336.155,67.446 334.586 C 68.395 333.137,75.976 333.060,76.977 334.489 M112.974 333.990 C 113.996 334.379,114.000 334.399,114.000 339.140 L 114.000 343.900 112.750 344.150 C 110.510 344.598,103.795 344.435,103.280 343.920 C 102.524 343.164,102.638 335.609,103.423 334.489 C 104.114 333.502,110.776 333.154,112.974 333.990 M149.809 334.500 C 149.932 334.995,149.980 337.380,149.916 339.800 L 149.800 344.200 145.800 344.321 C 143.600 344.387,141.215 344.334,140.500 344.203 L 139.200 343.964 139.206 339.482 C 139.214 333.428,138.954 333.678,145.292 333.632 C 149.423 333.601,149.593 333.634,149.809 334.500 M185.610 334.626 C 186.179 336.122,186.109 343.331,185.520 343.920 C 184.918 344.522,177.476 344.576,176.374 343.986 C 175.332 343.428,175.212 335.932,176.223 334.489 C 177.252 333.020,185.042 333.133,185.610 334.626 M221.269 334.262 C 222.396 335.282,222.361 343.379,221.226 343.986 C 220.399 344.429,213.688 344.562,212.633 344.157 C 211.880 343.868,211.698 335.712,212.414 334.374 C 212.988 333.301,220.107 333.211,221.269 334.262 M258.409 334.400 C 258.617 334.730,258.791 336.939,258.794 339.310 C 258.801 344.537,258.868 344.484,252.440 344.313 L 248.200 344.200 248.087 339.423 C 248.024 336.796,248.069 334.396,248.187 334.090 C 248.506 333.259,257.869 333.543,258.409 334.400 M294.200 339.000 L 294.200 344.200 289.960 344.313 C 283.565 344.483,283.600 344.510,283.600 339.486 C 283.600 333.674,283.669 333.612,290.000 333.725 L 294.200 333.800 294.200 339.000 M368.216 334.500 C 368.129 334.775,367.989 337.790,367.906 341.200 C 367.822 344.610,367.878 346.860,368.030 346.200 C 368.181 345.540,368.327 342.817,368.353 340.149 C 368.404 334.842,368.753 333.918,370.374 334.786 C 370.832 335.031,371.200 335.062,371.200 334.857 C 371.200 333.999,368.479 333.674,368.216 334.500 M64.786 346.774 C 65.311 347.754,65.329 354.810,64.810 356.174 C 64.242 357.667,56.452 357.780,55.423 356.311 C 54.338 354.762,54.540 347.428,55.689 346.623 C 57.126 345.616,64.230 345.734,64.786 346.774 M100.426 346.414 C 101.115 346.783,101.200 347.285,101.200 350.995 C 101.200 357.167,101.174 357.200,96.216 357.200 C 91.062 357.200,91.200 357.354,91.200 351.600 C 91.200 348.524,91.362 346.798,91.680 346.480 C 92.281 345.879,99.327 345.826,100.426 346.414 M137.800 351.600 L 137.800 357.000 132.833 357.113 C 126.813 357.250,127.059 357.454,126.863 352.151 C 126.630 345.853,126.535 345.950,132.774 346.089 L 137.800 346.200 137.800 351.600 M173.520 346.480 C 174.031 346.991,174.201 354.610,173.740 356.331 C 173.481 357.297,164.258 357.595,163.332 356.668 C 162.128 355.462,162.789 346.535,164.101 346.282 C 166.227 345.872,173.056 346.016,173.520 346.480 M209.520 346.480 C 210.124 347.084,210.178 355.319,209.586 356.426 C 209.215 357.119,208.713 357.200,204.796 357.200 L 200.421 357.200 199.810 356.020 C 198.755 353.980,198.957 347.467,200.100 346.670 C 201.236 345.877,208.766 345.726,209.520 346.480 M245.550 346.250 L 246.800 346.500 246.800 351.460 C 246.800 357.406,247.023 357.200,240.588 357.200 C 235.527 357.200,235.600 357.282,235.600 351.600 C 235.600 345.952,235.559 346.000,240.364 346.000 C 242.529 346.000,244.863 346.113,245.550 346.250 M282.557 346.633 C 282.876 347.463,282.870 354.348,282.550 355.950 L 282.300 357.200 277.826 357.200 C 271.771 357.200,271.945 357.375,272.086 351.413 C 272.221 345.767,271.835 346.103,278.257 346.040 C 281.612 346.007,282.356 346.109,282.557 346.633 M318.971 346.629 C 319.716 347.373,319.889 355.913,319.186 357.226 C 318.713 358.110,310.692 358.398,309.174 357.586 C 308.090 357.006,307.997 347.909,309.062 346.731 C 309.976 345.722,317.981 345.639,318.971 346.629 M355.105 357.883 C 355.602 357.979,356.322 357.975,356.705 357.875 C 357.087 357.775,356.680 357.696,355.800 357.701 C 354.920 357.705,354.607 357.787,355.105 357.883 M344.421 358.574 C 343.974 359.113,344.434 360.800,345.028 360.800 C 345.138 360.800,345.054 360.475,344.842 360.078 C 344.112 358.714,344.866 358.432,349.615 358.299 L 354.200 358.171 349.549 358.086 C 345.916 358.019,344.794 358.126,344.421 358.574 M17.383 370.300 C 17.508 376.845,17.653 384.720,17.705 387.800 L 17.800 393.400 12.200 393.400 L 6.600 393.400 6.496 376.400 C 6.438 367.050,6.477 359.175,6.583 358.900 C 6.723 358.536,8.182 358.400,11.966 358.400 L 17.156 358.400 17.383 370.300 M53.113 362.840 C 53.282 369.205,53.286 369.200,48.439 369.200 C 43.132 369.200,42.800 368.845,42.800 363.166 C 42.800 358.312,42.717 358.379,48.600 358.505 L 53.000 358.600 53.113 362.840 M89.115 362.999 C 89.276 369.218,89.290 369.200,84.197 369.200 C 79.227 369.200,79.200 369.167,79.200 363.015 C 79.200 358.111,78.820 358.427,84.600 358.525 L 89.000 358.600 89.115 362.999 M125.800 363.388 C 125.800 369.236,125.853 369.185,119.747 369.194 C 114.938 369.201,115.214 369.567,115.205 363.167 C 115.199 357.979,114.751 358.355,120.778 358.489 L 125.800 358.600 125.800 363.388 M161.924 362.200 C 161.992 364.180,161.933 366.580,161.794 367.534 L 161.541 369.267 157.031 369.134 C 151.068 368.957,151.200 369.087,151.200 363.384 C 151.200 358.038,150.734 358.428,157.000 358.526 L 161.800 358.600 161.924 362.200 M197.516 363.000 C 197.691 369.587,197.970 369.200,193.038 369.200 C 187.750 369.200,187.600 369.037,187.600 363.294 C 187.600 358.248,187.488 358.348,192.992 358.488 L 197.400 358.600 197.516 363.000 M233.520 358.880 C 234.288 359.648,234.158 366.987,233.354 368.214 C 232.740 369.152,232.515 369.200,228.764 369.200 L 224.821 369.200 224.210 368.020 C 223.447 366.544,223.348 359.612,224.080 358.880 C 224.393 358.567,226.036 358.400,228.800 358.400 C 231.564 358.400,233.207 358.567,233.520 358.880 M270.721 362.600 C 270.787 364.800,270.734 367.185,270.603 367.900 L 270.364 369.200 265.372 369.200 C 259.424 369.200,259.600 369.376,259.600 363.407 C 259.600 358.002,259.184 358.358,265.347 358.489 L 270.600 358.600 270.721 362.600 M307.511 364.111 L 307.623 369.622 301.711 369.511 L 295.800 369.400 295.687 364.404 C 295.544 358.073,295.249 358.341,302.191 358.489 L 307.400 358.600 307.511 364.111 M332.800 370.117 C 331.820 370.612,331.798 370.725,331.689 375.852 C 331.554 382.172,331.735 382.000,325.230 382.000 C 319.730 382.000,319.846 381.875,319.659 387.960 C 319.479 393.829,319.701 393.600,314.195 393.600 C 307.884 393.600,307.851 393.632,307.672 399.861 C 307.563 403.644,307.404 404.702,306.887 405.103 C 306.368 405.505,277.218 405.604,161.659 405.597 C 82.140 405.591,16.986 405.680,16.872 405.795 C 16.615 406.052,306.465 405.771,308.400 405.512 L 309.800 405.325 309.915 401.197 C 309.983 398.723,309.863 396.903,309.615 396.655 C 307.850 394.890,309.380 394.000,314.177 394.000 C 316.218 394.000,318.723 393.886,319.744 393.746 L 321.600 393.491 321.600 389.026 C 321.600 386.233,321.430 384.390,321.147 384.107 C 319.950 382.910,321.074 382.471,325.874 382.263 C 328.473 382.151,331.275 381.936,332.100 381.786 L 333.600 381.512 333.600 377.199 C 333.600 373.734,333.482 372.840,333.000 372.655 C 332.273 372.376,332.207 370.972,332.900 370.524 C 333.175 370.346,336.190 370.101,339.600 369.980 L 345.800 369.760 339.800 369.686 C 335.628 369.634,333.495 369.766,332.800 370.117 " stroke="none" fill="#546f75" fill-rule="evenodd"></path><path id="path4" d="M100.141 7.410 C 100.050 7.646,100.027 10.350,100.088 13.419 L 100.200 19.000 101.300 19.127 L 102.400 19.253 102.400 13.031 L 102.400 6.809 101.352 6.896 C 100.776 6.943,100.231 7.175,100.141 7.410 M88.000 24.757 C 88.000 29.820,88.095 30.751,88.633 30.957 C 90.229 31.570,90.327 31.340,90.537 26.500 C 90.649 23.915,90.864 21.125,91.014 20.300 L 91.288 18.800 89.644 18.800 L 88.000 18.800 88.000 24.757 M76.400 36.800 L 76.400 42.800 77.413 42.800 C 78.709 42.800,78.706 42.810,78.919 36.300 L 79.099 30.800 77.749 30.800 L 76.400 30.800 76.400 36.800 M368.307 108.792 C 368.369 154.044,368.566 187.184,368.776 187.736 C 369.230 188.932,370.487 189.200,375.636 189.200 C 380.461 189.200,380.398 189.122,380.406 195.074 C 380.414 200.827,380.141 200.560,386.274 200.800 C 391.226 200.994,391.395 201.030,391.891 202.000 C 392.300 202.801,392.382 214.984,392.301 263.300 L 392.200 323.600 393.697 323.600 L 395.195 323.600 395.195 261.442 C 395.195 205.237,395.135 199.260,394.565 199.042 C 394.218 198.909,391.519 198.800,388.567 198.800 L 383.200 198.800 383.200 193.000 L 383.200 187.200 377.200 187.200 L 371.200 187.200 371.200 109.000 L 371.200 30.800 369.700 30.800 L 368.200 30.800 368.307 108.792 M64.748 42.550 C 64.311 42.974,64.712 44.845,65.278 45.025 C 66.299 45.349,66.673 44.994,66.711 43.664 C 66.738 42.681,65.398 41.920,64.748 42.550 M115.203 69.194 C 114.664 70.201,114.807 210.174,115.349 211.300 C 115.904 212.454,293.768 212.380,294.386 211.226 C 295.100 209.891,294.949 70.357,294.232 69.376 C 293.674 68.613,292.230 68.598,204.658 68.478 L 115.651 68.356 115.203 69.194 M258.000 97.837 C 258.000 101.555,258.451 103.132,259.791 104.094 C 260.016 104.256,262.436 104.391,265.169 104.394 C 269.224 104.399,270.271 104.522,270.869 105.062 C 271.914 106.008,272.020 186.823,270.977 188.311 L 270.355 189.200 211.677 189.195 C 179.405 189.192,152.617 189.086,152.149 188.961 C 150.801 188.599,150.400 187.083,150.400 182.355 C 150.400 176.180,150.611 176.400,144.666 176.400 C 141.384 176.400,139.601 176.241,139.280 175.920 C 138.914 175.554,138.800 167.160,138.800 140.580 C 138.800 105.235,138.847 104.007,140.257 102.369 C 140.633 101.931,140.800 100.552,140.800 97.870 L 140.800 94.003 194.300 93.901 C 223.725 93.846,250.095 93.855,252.900 93.923 L 258.000 94.046 258.000 97.837 M389.300 199.495 C 388.145 199.576,386.255 199.576,385.100 199.495 C 383.945 199.414,384.890 199.348,387.200 199.348 C 389.510 199.348,390.455 199.414,389.300 199.495 M115.280 287.280 C 114.494 288.066,114.628 295.848,115.433 296.157 C 116.250 296.471,123.923 296.463,125.100 296.148 C 126.595 295.747,126.483 287.764,124.974 287.190 C 123.474 286.620,115.870 286.690,115.280 287.280 M40.800 321.200 C 40.800 323.001,41.661 323.309,43.600 322.200 C 44.280 321.811,45.894 321.624,48.645 321.614 L 52.689 321.600 52.498 320.600 L 52.307 319.600 46.553 319.600 L 40.800 319.600 40.800 321.200 M380.909 322.890 C 380.686 323.170,380.410 326.143,380.297 329.495 L 380.091 335.591 381.656 335.529 L 383.220 335.468 383.110 329.482 C 382.995 323.249,382.294 321.149,380.909 322.890 M28.800 332.844 L 28.800 334.109 30.656 333.854 C 31.677 333.714,34.389 333.600,36.684 333.600 C 40.781 333.600,40.853 333.584,40.728 332.700 C 40.603 331.819,40.476 331.798,34.700 331.689 L 28.800 331.579 28.800 332.844 M368.895 334.900 C 368.674 335.175,368.416 338.055,368.322 341.300 L 368.152 347.200 369.676 347.200 L 371.200 347.200 371.200 341.214 C 371.200 335.705,371.138 335.195,370.426 334.814 C 369.449 334.291,369.383 334.295,368.895 334.900 M17.319 343.682 C 15.981 345.374,16.634 345.600,22.867 345.600 L 28.800 345.600 28.800 344.600 L 28.800 343.600 23.833 343.600 C 21.101 343.600,18.610 343.502,18.297 343.382 C 17.984 343.262,17.544 343.397,17.319 343.682 M3.028 355.554 C 2.908 355.749,2.852 365.064,2.905 376.254 L 3.000 396.600 9.909 396.709 C 16.775 396.818,16.821 396.813,17.163 395.909 C 17.783 394.274,17.088 394.030,11.460 393.911 L 6.200 393.800 6.200 376.000 L 6.200 358.200 11.668 358.000 C 17.635 357.782,17.948 357.682,17.274 356.202 L 16.817 355.200 10.032 355.200 C 6.300 355.200,3.149 355.359,3.028 355.554 M355.400 358.018 C 354.300 358.190,351.480 358.346,349.133 358.365 C 344.586 358.402,344.162 358.599,344.929 360.310 C 345.331 361.206,345.431 361.218,351.369 361.110 L 357.400 361.000 357.465 359.300 C 357.500 358.365,357.500 357.624,357.465 357.653 C 357.429 357.683,356.500 357.847,355.400 358.018 M333.100 370.432 C 332.158 370.981,332.213 372.272,333.201 372.801 C 333.680 373.057,336.337 373.209,339.801 373.178 L 345.600 373.126 345.600 371.563 L 345.600 370.000 339.700 370.012 C 336.441 370.019,333.487 370.207,333.100 370.432 M330.600 382.000 C 330.160 382.189,327.859 382.356,325.487 382.372 C 322.025 382.394,321.129 382.519,320.943 383.005 C 320.365 384.510,321.450 384.800,327.649 384.800 L 333.600 384.800 333.600 383.200 C 333.600 381.488,332.664 381.113,330.600 382.000 M315.200 393.883 C 309.558 394.037,309.118 394.158,309.275 395.514 L 309.400 396.600 315.500 396.710 L 321.600 396.821 321.600 395.210 C 321.600 393.700,321.532 393.605,320.500 393.684 C 319.895 393.731,317.510 393.820,315.200 393.883 M307.200 405.601 C 306.816 405.848,254.363 405.990,161.700 405.994 L 16.800 406.000 16.800 407.397 L 16.800 408.794 163.157 408.798 C 296.404 408.803,309.535 408.746,309.757 408.169 C 310.629 405.896,309.109 404.369,307.200 405.601 M397.200 414.200 C 397.200 415.533,397.267 415.600,398.600 415.600 C 399.933 415.600,400.000 415.533,400.000 414.200 C 400.000 412.867,399.933 412.800,398.600 412.800 C 397.267 412.800,397.200 412.867,397.200 414.200 " stroke="none" fill="#168888" fill-rule="evenodd"></path></g></svg>